# xmcd
#
# Track frame offsets: 
#        150
#        9671
#        36427
#        59010
#        83079
#        105679
#        124305
#        142014
#        167288
#        187809
#        211827
#        236461
#        256589
#        280480
#
# Disc length: 4019 seconds
#
# Revision: 3
# Processed by: cddbd v1.5.2PL0 Copyright (c) Steve Scherf et al.
# Submitted via: ExactAudioCopy v1.1
#
DISCID=bf0fb10e
DTITLE=Various Artist - Tokyo Cafe - Stylish, Cozy and Breezy
DYEAR=2007
DGENRE=Easy Listening
TTITLE0=小野リサ - Ay Cosita Linda
TTITLE1=冨田ラボfeat.ハナレグミ - 眠りの森
TTITLE2=オリジナル・ラブ - 接吻
TTITLE3=高野寛 - KAORI
TTITLE4=GREAT3 - Fool and the Gang
TTITLE5=The Boom - 光
TTITLE6=ウルフルズ - 大丈夫
TTITLE7=YuU - Honey Bee
TTITLE8=Spinna B-ill meets Kenji Jammer - 何度も・・・
TTITLE9=Sakura - HONEY
TTITLE10=Keyco - ハルニレ
TTITLE11=Saigenji - 塩と奇跡
TTITLE12=諌山実生 - 朝陽の中で微笑んで
TTITLE13=畠山美由紀 - 真夏の湿原
EXTD=YEAR: 2007
EXTT0=
EXTT1=
EXTT2=
EXTT3=
EXTT4=
EXTT5=
EXTT6=
EXTT7=
EXTT8=
EXTT9=
EXTT10=
EXTT11=
EXTT12=
EXTT13=
PLAYORDER=
